<svg xmlns="http://www.w3.org/2000/svg" viewBox="0 0 1200 720" width="1200" height="720">
  <rect width="1200" height="720" fill="#f0f2f5"/>
  <rect width="240" height="720" fill="#001a40"/>
  <rect x="20" y="24" width="32" height="32" rx="6" fill="#febb02"/>
  <text x="60" y="46" fill="#fff" font-family="Segoe UI,sans-serif" font-size="16" font-weight="700">Booking CMS</text>
  <text x="48" y="134" fill="#8b929a" font-family="Segoe UI,sans-serif" font-size="14">Dashboard</text>
  <text x="48" y="168" fill="#8b929a" font-family="Segoe UI,sans-serif" font-size="14">Properties</text>
  <text x="48" y="202" fill="#8b929a" font-family="Segoe UI,sans-serif" font-size="14">Bookings</text>
  <rect x="12" y="218" width="216" height="40" rx="6" fill="#0071c2"/>
  <text x="48" y="244" fill="#fff" font-family="Segoe UI,sans-serif" font-size="14" font-weight="600">Guest reviews</text>
  <text x="48" y="278" fill="#8b929a" font-family="Segoe UI,sans-serif" font-size="14">Settings</text>
  <text x="20" y="660" fill="#febb02" font-family="Segoe UI,sans-serif" font-size="13" font-weight="700">v1.2.0</text>
  <text x="280" y="48" fill="#333" font-family="Segoe UI,sans-serif" font-size="24" font-weight="700">Guest reviews</text>
  <rect x="280" y="72" width="880" height="48" rx="6" fill="#fff" stroke="#e7e7e7"/>
  <text x="300" y="102" fill="#6b6b6b" font-family="Segoe UI,sans-serif" font-size="13">Filter: All properties · All statuses</text>
  <rect x="980" y="84" width="100" height="28" rx="4" fill="#0071c2"/>
  <text x="1000" y="102" fill="#fff" font-family="Segoe UI,sans-serif" font-size="12" font-weight="600">Apply</text>
  <rect x="280" y="140" width="880" height="520" rx="8" fill="#fff" stroke="#e7e7e7"/>
  <text x="308" y="172" fill="#333" font-family="Segoe UI,sans-serif" font-size="16" font-weight="700">Guest reviews (18)</text>
  <rect x="308" y="190" width="824" height="1" fill="#e7e7e7"/>
  <text x="320" y="224" fill="#333" font-family="Segoe UI,sans-serif" font-size="14" font-weight="600">Erik Lund · Drammen Riverside</text>
  <text x="320" y="246" fill="#6b6b6b" font-family="Segoe UI,sans-serif" font-size="12">8.5 · Business · 2025-10 · Approved</text>
  <text x="320" y="268" fill="#333" font-family="Segoe UI,sans-serif" font-size="13">Solid business hotel — Gym open early, parking included...</text>
  <rect x="900" y="210" width="72" height="26" rx="4" fill="#fee2e2"/>
  <text x="912" y="228" fill="#991b1b" font-family="Segoe UI,sans-serif" font-size="11">Hide</text>
  <rect x="980" y="210" width="72" height="26" rx="4" fill="#f1f5f9"/>
  <text x="992" y="228" fill="#64748b" font-family="Segoe UI,sans-serif" font-size="11">Delete</text>
  <text x="320" y="320" fill="#333" font-family="Segoe UI,sans-serif" font-size="14" font-weight="600">Оксана Іваненко · Drammen Riverside</text>
  <text x="320" y="342" fill="#6b6b6b" font-family="Segoe UI,sans-serif" font-size="12">9.0 · Couple · Pending moderation</text>
  <rect x="900" y="314" width="88" height="26" rx="4" fill="#dcfce7"/>
  <text x="912" y="332" fill="#166534" font-family="Segoe UI,sans-serif" font-size="11">Approve</text>
  <rect x="308" y="380" width="824" height="120" rx="6" fill="#f8fafc" stroke="#e7e7e7"/>
  <text x="328" y="410" fill="#333" font-family="Segoe UI,sans-serif" font-size="14" font-weight="600">Add review manually</text>
  <rect x="328" y="430" width="200" height="32" rx="4" fill="#fff" stroke="#e7e7e7"/>
  <rect x="540" y="430" width="80" height="32" rx="4" fill="#0071c2"/>
  <text x="556" y="450" fill="#fff" font-family="Segoe UI,sans-serif" font-size="12" font-weight="600">Save</text>
</svg>