<svg xmlns="http://www.w3.org/2000/svg" viewBox="0 0 1200 720" width="1200" height="720">
  <rect width="1200" height="720" fill="#f0f2f5"/>
  <rect width="240" height="720" fill="#1a1d23"/>
  <rect x="20" y="24" width="32" height="32" rx="6" fill="#febb02"/>
  <text x="60" y="46" fill="#fff" font-family="Segoe UI,sans-serif" font-size="16" font-weight="700">Booking CMS</text>
  <text x="48" y="134" fill="#8b929a" font-family="Segoe UI,sans-serif" font-size="14">Dashboard</text>
  <text x="48" y="178" fill="#8b929a" font-family="Segoe UI,sans-serif" font-size="14">Properties</text>
  <rect x="12" y="196" width="216" height="40" rx="6" fill="#2d3340"/>
  <text x="48" y="222" fill="#fff" font-family="Segoe UI,sans-serif" font-size="14">Bookings</text>
  <text x="280" y="48" fill="#333" font-family="Segoe UI,sans-serif" font-size="24" font-weight="700">Manage bookings</text>
  <rect x="280" y="80" width="880" height="580" rx="8" fill="#fff" stroke="#e7e7e7"/>
  <rect x="308" y="108" width="824" height="40" fill="#f5f5f5"/>
  <text x="320" y="133" fill="#6b6b6b" font-family="Segoe UI,sans-serif" font-size="12" font-weight="600">ID</text>
  <text x="400" y="133" fill="#6b6b6b" font-family="Segoe UI,sans-serif" font-size="12" font-weight="600">Guest</text>
  <text x="560" y="133" fill="#6b6b6b" font-family="Segoe UI,sans-serif" font-size="12" font-weight="600">Property</text>
  <text x="760" y="133" fill="#6b6b6b" font-family="Segoe UI,sans-serif" font-size="12" font-weight="600">Total</text>
  <text x="900" y="133" fill="#6b6b6b" font-family="Segoe UI,sans-serif" font-size="12" font-weight="600">Status</text>
  <text x="1040" y="133" fill="#6b6b6b" font-family="Segoe UI,sans-serif" font-size="12" font-weight="600">Actions</text>
  <line x1="308" y1="168" x2="1132" y2="168" stroke="#e7e7e7"/>
  <text x="320" y="198" fill="#333" font-family="Segoe UI,sans-serif" font-size="13">#BK-001</text>
  <text x="400" y="198" fill="#333" font-family="Segoe UI,sans-serif" font-size="13">Anna Kowalska</text>
  <text x="560" y="198" fill="#333" font-family="Segoe UI,sans-serif" font-size="13">Fjord View Hotel</text>
  <text x="760" y="198" fill="#333" font-family="Segoe UI,sans-serif" font-size="13">1 701 kr</text>
  <rect x="900" y="182" width="72" height="24" rx="4" fill="#fff3cd" stroke="#ffc107"/>
  <text x="912" y="199" fill="#856404" font-family="Segoe UI,sans-serif" font-size="11">Pending</text>
  <rect x="1040" y="182" width="80" height="24" rx="4" fill="#0071c2"/>
  <text x="1056" y="199" fill="#fff" font-family="Segoe UI,sans-serif" font-size="11">Confirm</text>
  <line x1="308" y1="220" x2="1132" y2="220" stroke="#e7e7e7"/>
  <text x="320" y="250" fill="#333" font-family="Segoe UI,sans-serif" font-size="13">#BK-002</text>
  <text x="400" y="250" fill="#333" font-family="Segoe UI,sans-serif" font-size="13">Ole Hansen</text>
  <text x="560" y="250" fill="#333" font-family="Segoe UI,sans-serif" font-size="13">Oslo Central Suites</text>
  <text x="760" y="250" fill="#333" font-family="Segoe UI,sans-serif" font-size="13">7 350 kr</text>
  <rect x="900" y="234" width="80" height="24" rx="4" fill="#d4edda" stroke="#28a745"/>
  <text x="912" y="251" fill="#155724" font-family="Segoe UI,sans-serif" font-size="11">Confirmed</text>
  <rect x="1040" y="234" width="80" height="24" rx="4" fill="#f5f5f5" stroke="#ccc"/>
  <text x="1056" y="251" fill="#6b6b6b" font-family="Segoe UI,sans-serif" font-size="11">Cancel</text>
  <line x1="308" y1="272" x2="1132" y2="272" stroke="#e7e7e7"/>
  <text x="320" y="302" fill="#333" font-family="Segoe UI,sans-serif" font-size="13">#BK-003</text>
  <text x="400" y="302" fill="#333" font-family="Segoe UI,sans-serif" font-size="13">Maria Svendsen</text>
  <text x="560" y="302" fill="#333" font-family="Segoe UI,sans-serif" font-size="13">Nordic Lights Cabin</text>
  <text x="760" y="302" fill="#333" font-family="Segoe UI,sans-serif" font-size="13">4 500 kr</text>
  <rect x="900" y="286" width="80" height="24" rx="4" fill="#d4edda" stroke="#28a745"/>
  <text x="912" y="303" fill="#155724" font-family="Segoe UI,sans-serif" font-size="11">Confirmed</text>
  <line x1="308" y1="324" x2="1132" y2="324" stroke="#e7e7e7"/>
  <text x="320" y="354" fill="#333" font-family="Segoe UI,sans-serif" font-size="13">#BK-004</text>
  <text x="400" y="354" fill="#333" font-family="Segoe UI,sans-serif" font-size="13">Jan Nowak</text>
  <text x="560" y="354" fill="#333" font-family="Segoe UI,sans-serif" font-size="13">Aker Brygge Apartment</text>
  <text x="760" y="354" fill="#333" font-family="Segoe UI,sans-serif" font-size="13">2 840 kr</text>
  <rect x="900" y="338" width="64" height="24" rx="4" fill="#f8d7da" stroke="#dc3545"/>
  <text x="912" y="355" fill="#721c24" font-family="Segoe UI,sans-serif" font-size="11">Cancelled</text>
</svg>