<svg xmlns="http://www.w3.org/2000/svg" viewBox="0 0 1200 720" width="1200" height="720">
  <rect width="1200" height="720" fill="#f0f2f5"/>
  <rect width="240" height="720" fill="#1a1d23"/>
  <rect x="20" y="24" width="32" height="32" rx="6" fill="#febb02"/>
  <text x="60" y="46" fill="#fff" font-family="Segoe UI,sans-serif" font-size="16" font-weight="700">Booking CMS</text>
  <text x="20" y="90" fill="#8b929a" font-family="Segoe UI,sans-serif" font-size="11" letter-spacing="1">ADMIN</text>
  <rect x="12" y="108" width="216" height="40" rx="6" fill="#2d3340"/>
  <text x="48" y="134" fill="#fff" font-family="Segoe UI,sans-serif" font-size="14">Dashboard</text>
  <text x="48" y="178" fill="#8b929a" font-family="Segoe UI,sans-serif" font-size="14">Properties</text>
  <text x="48" y="212" fill="#8b929a" font-family="Segoe UI,sans-serif" font-size="14">Bookings</text>
  <text x="48" y="680" fill="#8b929a" font-family="Segoe UI,sans-serif" font-size="12">demo / bilobook2026</text>
  <text x="280" y="48" fill="#333" font-family="Segoe UI,sans-serif" font-size="24" font-weight="700">Dashboard</text>
  <rect x="280" y="72" width="880" height="44" rx="6" fill="#e8f4fd" stroke="#0071c2" stroke-width="1"/>
  <text x="308" y="99" fill="#0071c2" font-family="Segoe UI,sans-serif" font-size="13">Demo mode — changes saved to JSON storage</text>
  <rect x="280" y="140" width="200" height="100" rx="8" fill="#fff" stroke="#e7e7e7"/>
  <rect x="300" y="160" width="40" height="40" rx="8" fill="#e8f0fe"/>
  <text x="360" y="175" fill="#333" font-family="Segoe UI,sans-serif" font-size="28" font-weight="700">10</text>
  <text x="360" y="200" fill="#6b6b6b" font-family="Segoe UI,sans-serif" font-size="12">Active properties</text>
  <rect x="500" y="140" width="200" height="100" rx="8" fill="#fff" stroke="#e7e7e7"/>
  <text x="580" y="175" fill="#333" font-family="Segoe UI,sans-serif" font-size="28" font-weight="700">5</text>
  <text x="580" y="200" fill="#6b6b6b" font-family="Segoe UI,sans-serif" font-size="12">Total bookings</text>
  <rect x="720" y="140" width="200" height="100" rx="8" fill="#fff" stroke="#e7e7e7"/>
  <text x="800" y="175" fill="#333" font-family="Segoe UI,sans-serif" font-size="28" font-weight="700">12 450</text>
  <text x="800" y="200" fill="#6b6b6b" font-family="Segoe UI,sans-serif" font-size="12">Revenue (NOK)</text>
  <rect x="940" y="140" width="220" height="100" rx="8" fill="#fff" stroke="#e7e7e7"/>
  <text x="1020" y="175" fill="#cc0000" font-family="Segoe UI,sans-serif" font-size="28" font-weight="700">2</text>
  <text x="1020" y="200" fill="#6b6b6b" font-family="Segoe UI,sans-serif" font-size="12">Pending bookings</text>
  <rect x="280" y="270" width="880" height="400" rx="8" fill="#fff" stroke="#e7e7e7"/>
  <text x="308" y="305" fill="#333" font-family="Segoe UI,sans-serif" font-size="16" font-weight="700">Recent bookings</text>
  <rect x="308" y="325" width="824" height="36" fill="#f5f5f5"/>
  <text x="320" y="348" fill="#6b6b6b" font-family="Segoe UI,sans-serif" font-size="12" font-weight="600">Guest</text>
  <text x="500" y="348" fill="#6b6b6b" font-family="Segoe UI,sans-serif" font-size="12" font-weight="600">Property</text>
  <text x="720" y="348" fill="#6b6b6b" font-family="Segoe UI,sans-serif" font-size="12" font-weight="600">Dates</text>
  <text x="900" y="348" fill="#6b6b6b" font-family="Segoe UI,sans-serif" font-size="12" font-weight="600">Status</text>
  <text x="320" y="388" fill="#333" font-family="Segoe UI,sans-serif" font-size="13">Anna K.</text>
  <text x="500" y="388" fill="#333" font-family="Segoe UI,sans-serif" font-size="13">Fjord View Hotel</text>
  <text x="720" y="388" fill="#333" font-family="Segoe UI,sans-serif" font-size="13">03–06 Jul</text>
  <rect x="900" y="372" width="72" height="22" rx="11" fill="#fff3cd"/>
  <text x="912" y="387" fill="#856404" font-family="Segoe UI,sans-serif" font-size="11">Pending</text>
  <text x="320" y="428" fill="#333" font-family="Segoe UI,sans-serif" font-size="13">Ole H.</text>
  <text x="500" y="428" fill="#333" font-family="Segoe UI,sans-serif" font-size="13">Oslo Central Suites</text>
  <text x="720" y="428" fill="#333" font-family="Segoe UI,sans-serif" font-size="13">10–14 Jul</text>
  <rect x="900" y="412" width="80" height="22" rx="11" fill="#d4edda"/>
  <text x="912" y="427" fill="#155724" font-family="Segoe UI,sans-serif" font-size="11">Confirmed</text>
  <text x="320" y="468" fill="#333" font-family="Segoe UI,sans-serif" font-size="13">Maria S.</text>
  <text x="500" y="468" fill="#333" font-family="Segoe UI,sans-serif" font-size="13">Nordic Lights Cabin</text>
  <text x="720" y="468" fill="#333" font-family="Segoe UI,sans-serif" font-size="13">20–25 Jul</text>
  <rect x="900" y="452" width="80" height="22" rx="11" fill="#d4edda"/>
  <text x="912" y="467" fill="#155724" font-family="Segoe UI,sans-serif" font-size="11">Confirmed</text>
</svg>