<svg xmlns="http://www.w3.org/2000/svg" viewBox="0 0 1200 720" width="1200" height="720">
  <rect width="1200" height="720" fill="#f5f5f5"/>
  <rect width="1200" height="52" fill="#003580"/>
  <rect x="24" y="14" width="28" height="28" rx="4" fill="#febb02"/>
  <text x="60" y="34" fill="#fff" font-family="Segoe UI,sans-serif" font-size="18" font-weight="700">Booking CMS</text>
  <rect x="48" y="72" width="720" height="360" rx="8" fill="#8ab4d4"/>
  <rect x="48" y="400" width="170" height="100" rx="4" fill="#7aa3c4"/>
  <rect x="228" y="400" width="170" height="100" rx="4" fill="#6a93b4"/>
  <rect x="408" y="400" width="170" height="100" rx="4" fill="#5a83a4"/>
  <rect x="588" y="400" width="170" height="100" rx="4" fill="#4a7394"/>
  <text x="48" y="530" fill="#333" font-family="Segoe UI,sans-serif" font-size="28" font-weight="700">Fjord View Hotel</text>
  <text x="48" y="560" fill="#6b6b6b" font-family="Segoe UI,sans-serif" font-size="15">Bryggen 12, Bergen, Norway</text>
  <rect x="48" y="575" width="72" height="32" rx="4" fill="#003580"/>
  <text x="62" y="597" fill="#fff" font-family="Segoe UI,sans-serif" font-size="14" font-weight="700">8.9 Superb</text>
  <text x="140" y="597" fill="#6b6b6b" font-family="Segoe UI,sans-serif" font-size="13">428 reviews</text>
  <text x="48" y="640" fill="#333" font-family="Segoe UI,sans-serif" font-size="15" font-weight="600">About this property</text>
  <text x="48" y="665" fill="#6b6b6b" font-family="Segoe UI,sans-serif" font-size="13">Panoramic fjord views, breakfast included, free Wi-Fi...</text>
  <rect x="800" y="72" width="352" height="420" rx="8" fill="#fff" stroke="#e7e7e7" stroke-width="2"/>
  <text x="824" y="110" fill="#333" font-family="Segoe UI,sans-serif" font-size="18" font-weight="700">Your booking summary</text>
  <text x="824" y="145" fill="#6b6b6b" font-family="Segoe UI,sans-serif" font-size="13">Check-in: 03 Jul 2026</text>
  <text x="824" y="168" fill="#6b6b6b" font-family="Segoe UI,sans-serif" font-size="13">Check-out: 06 Jul 2026 (3 nights)</text>
  <text x="824" y="191" fill="#6b6b6b" font-family="Segoe UI,sans-serif" font-size="13">2 adults · 1 room</text>
  <line x1="824" y1="210" x2="1128" y2="210" stroke="#e7e7e7"/>
  <text x="824" y="240" fill="#333" font-family="Segoe UI,sans-serif" font-size="14">630 kr × 3 nights</text>
  <text x="1100" y="240" fill="#333" font-family="Segoe UI,sans-serif" font-size="14" text-anchor="end">1 890 kr</text>
  <rect x="824" y="260" width="120" height="22" rx="3" fill="#cc0000"/>
  <text x="834" y="275" fill="#fff" font-family="Segoe UI,sans-serif" font-size="11">Weekend deal -10%</text>
  <text x="824" y="310" fill="#333" font-family="Segoe UI,sans-serif" font-size="20" font-weight="700">Total: 1 701 kr</text>
  <rect x="824" y="340" width="304" height="48" rx="4" fill="#0071c2"/>
  <text x="920" y="370" fill="#fff" font-family="Segoe UI,sans-serif" font-size="16" font-weight="700">Reserve</text>
  <text x="824" y="430" fill="#008009" font-family="Segoe UI,sans-serif" font-size="12">✓ Free cancellation until 01 Jul</text>
  <text x="824" y="455" fill="#008009" font-family="Segoe UI,sans-serif" font-size="12">✓ No prepayment needed</text>
</svg>