<svg xmlns="http://www.w3.org/2000/svg" viewBox="0 0 1200 720" width="1200" height="720">
  <rect width="1200" height="720" fill="#f5f5f5"/>
  <rect width="1200" height="52" fill="#003580"/>
  <rect x="24" y="14" width="28" height="28" rx="4" fill="#febb02"/>
  <text x="60" y="34" fill="#fff" font-family="Segoe UI,sans-serif" font-size="18" font-weight="700">Booking CMS</text>
  <text x="48" y="100" fill="#333" font-family="Segoe UI,sans-serif" font-size="24" font-weight="700">Drammen Riverside Business Hotel</text>
  <line x1="48" y1="120" x2="1152" y2="120" stroke="#e7e7e7" stroke-width="2"/>
  <text x="48" y="148" fill="#6b6b6b" font-family="Segoe UI,sans-serif" font-size="14">Overview</text>
  <text x="140" y="148" fill="#003580" font-family="Segoe UI,sans-serif" font-size="14" font-weight="700">Facilities</text>
  <text x="240" y="148" fill="#6b6b6b" font-family="Segoe UI,sans-serif" font-size="14">Guest reviews</text>
  <rect x="140" y="152" width="72" height="3" fill="#003580"/>
  <text x="48" y="188" fill="#6b6b6b" font-family="Segoe UI,sans-serif" font-size="13">Everything included for a comfortable stay at this property.</text>
  <rect x="48" y="210" width="200" height="44" rx="22" fill="#f1f5f9"/>
  <text x="72" y="238" fill="#333" font-family="Segoe UI,sans-serif" font-size="13">✓ Free WiFi</text>
  <rect x="260" y="210" width="160" height="44" rx="22" fill="#f1f5f9"/>
  <text x="284" y="238" fill="#333" font-family="Segoe UI,sans-serif" font-size="13">✓ Gym</text>
  <rect x="432" y="210" width="180" height="44" rx="22" fill="#f1f5f9"/>
  <text x="456" y="238" fill="#333" font-family="Segoe UI,sans-serif" font-size="13">✓ Parking</text>
  <rect x="624" y="210" width="200" height="44" rx="22" fill="#f1f5f9"/>
  <text x="648" y="238" fill="#333" font-family="Segoe UI,sans-serif" font-size="13">✓ Restaurant</text>
  <rect x="836" y="210" width="180" height="44" rx="22" fill="#f1f5f9"/>
  <text x="860" y="238" fill="#333" font-family="Segoe UI,sans-serif" font-size="13">✓ Breakfast</text>
  <rect x="48" y="270" width="520" height="44" rx="22" fill="#f1f5f9"/>
  <text x="72" y="298" fill="#333" font-family="Segoe UI,sans-serif" font-size="13">✓ Bar</text>
  <text x="48" y="350" fill="#333" font-family="Segoe UI,sans-serif" font-size="16" font-weight="700">Highlights</text>
  <text x="48" y="382" fill="#333" font-family="Segoe UI,sans-serif" font-size="13">✓ Free guest parking</text>
  <text x="48" y="408" fill="#333" font-family="Segoe UI,sans-serif" font-size="13">✓ Gym open 05:00–23:00</text>
  <text x="48" y="434" fill="#333" font-family="Segoe UI,sans-serif" font-size="13">✓ Meeting rooms for up to 40 guests</text>
  <text x="48" y="460" fill="#333" font-family="Segoe UI,sans-serif" font-size="13">✓ Restaurant with river view</text>
  <rect x="620" y="330" width="532" height="300" rx="8" fill="#fff" stroke="#e7e7e7"/>
  <text x="644" y="362" fill="#333" font-family="Segoe UI,sans-serif" font-size="15" font-weight="700">What guests say</text>
  <rect x="644" y="380" width="484" height="72" rx="6" fill="#f8fafc" stroke="#e7e7e7"/>
  <text x="660" y="408" fill="#333" font-family="Segoe UI,sans-serif" font-size="13" font-weight="600">Great for meetings — Hanne Berg</text>
  <text x="660" y="430" fill="#6b6b6b" font-family="Segoe UI,sans-serif" font-size="12">Booked a small meeting room — projector ready on time.</text>
</svg>