<svg xmlns="http://www.w3.org/2000/svg" viewBox="0 0 1200 720" width="1200" height="720">
  <rect width="1200" height="720" fill="#f5f5f5"/>
  <rect width="1200" height="52" fill="#003580"/>
  <rect x="24" y="14" width="28" height="28" rx="4" fill="#febb02"/>
  <text x="60" y="34" fill="#fff" font-family="Segoe UI,sans-serif" font-size="18" font-weight="700">Booking CMS</text>
  <text x="48" y="100" fill="#333" font-family="Segoe UI,sans-serif" font-size="28" font-weight="700">Booking solutions by industry</text>
  <text x="48" y="132" fill="#6b6b6b" font-family="Segoe UI,sans-serif" font-size="14">8 dedicated SEO pages — Norwegian, English, Ukrainian and Russian</text>
  <rect x="48" y="160" width="260" height="140" rx="8" fill="#fff" stroke="#e7e7e7"/>
  <text x="68" y="195" fill="#003580" font-family="Segoe UI,sans-serif" font-size="16" font-weight="700">Hotels &amp; stays</text>
  <text x="68" y="220" fill="#6b6b6b" font-family="Segoe UI,sans-serif" font-size="12">hotell-overnatting/</text>
  <rect x="324" y="160" width="260" height="140" rx="8" fill="#fff" stroke="#e7e7e7"/>
  <text x="344" y="195" fill="#003580" font-family="Segoe UI,sans-serif" font-size="16" font-weight="700">Apartment rental</text>
  <text x="344" y="220" fill="#6b6b6b" font-family="Segoe UI,sans-serif" font-size="12">leiebolig/</text>
  <rect x="600" y="160" width="260" height="140" rx="8" fill="#fff" stroke="#e7e7e7"/>
  <text x="620" y="195" fill="#003580" font-family="Segoe UI,sans-serif" font-size="16" font-weight="700">Doctor visits</text>
  <text x="620" y="220" fill="#6b6b6b" font-family="Segoe UI,sans-serif" font-size="12">legetime/</text>
  <rect x="876" y="160" width="260" height="140" rx="8" fill="#fff" stroke="#e7e7e7"/>
  <text x="896" y="195" fill="#003580" font-family="Segoe UI,sans-serif" font-size="16" font-weight="700">Dentist</text>
  <text x="896" y="220" fill="#6b6b6b" font-family="Segoe UI,sans-serif" font-size="12">tannlege/</text>
  <rect x="48" y="320" width="260" height="140" rx="8" fill="#fff" stroke="#e7e7e7"/>
  <text x="68" y="355" fill="#003580" font-family="Segoe UI,sans-serif" font-size="16" font-weight="700">Beauty salon</text>
  <rect x="324" y="320" width="260" height="140" rx="8" fill="#fff" stroke="#e7e7e7"/>
  <text x="344" y="355" fill="#003580" font-family="Segoe UI,sans-serif" font-size="16" font-weight="700">Spa &amp; massage</text>
  <rect x="600" y="320" width="260" height="140" rx="8" fill="#fff" stroke="#e7e7e7"/>
  <text x="620" y="355" fill="#003580" font-family="Segoe UI,sans-serif" font-size="16" font-weight="700">Fitness &amp; classes</text>
  <rect x="876" y="320" width="260" height="140" rx="8" fill="#fff" stroke="#e7e7e7"/>
  <text x="896" y="355" fill="#003580" font-family="Segoe UI,sans-serif" font-size="16" font-weight="700">Equipment hire</text>
  <rect x="48" y="500" width="1104" height="160" rx="8" fill="#003580"/>
  <text x="72" y="540" fill="#febb02" font-family="Segoe UI,sans-serif" font-size="14" font-weight="600">Schema.org · hreflang · sitemap</text>
  <text x="72" y="570" fill="#fff" font-family="Segoe UI,sans-serif" font-size="22" font-weight="700">One PHP script — adapt for any reservation workflow</text>
  <text x="72" y="610" fill="#fff" font-family="Segoe UI,sans-serif" font-size="14" opacity=".85">Demo: JSON storage · Production: optional MySQL / MariaDB</text>
</svg>